<svg width="1512" height="437" viewBox="0 0 1512 437" fill="none" xmlns="http://www.w3.org/2000/svg">
<path opacity="0.2" d="M1392 45.9999C1452.4 3.99994 1497.83 28.4999 1513 45.9999V437H-3V277.5C41 268.833 150.5 249.7 236.5 242.5C344 233.5 337.5 191 446.5 171C555.5 151 571.5 245 702 277.5C832.5 310 792 250.5 938.5 171C1085 91.5 1069 148 1206.5 148C1344 148 1316.5 98.4999 1392 45.9999Z" fill="url(#paint0_linear_1_36)"/>
<path opacity="0.1" d="M98 212.5C64.8 200.5 10.5 217.5 -12.5 227.5V436H1514.5V0C1484 40.5 1411.2 123.9 1364 133.5C1305 145.5 1322 144 1244 133.5C1166 123 1178 105 1124.5 75.5001C1071 46.0001 1039.5 44.5001 959 75.5001C878.5 106.5 831 227.5 798.5 243.5C766 259.5 706 273.5 642.5 265C579 256.5 590 245 523 227.5C456 210 481.5 227.5 416.5 253C351.5 278.5 321 265 262 265C203 265 139.5 227.5 98 212.5Z" fill="url(#paint1_linear_1_36)"/>
<defs>
<linearGradient id="paint0_linear_1_36" x1="1010" y1="3.99996" x2="392.5" y2="507.5" gradientUnits="userSpaceOnUse">
<stop stop-color="#1EF895"/>
<stop offset="1" stop-color="#05F2F2"/>
</linearGradient>
<linearGradient id="paint1_linear_1_36" x1="223" y1="144" x2="1272.5" y2="595" gradientUnits="userSpaceOnUse">
<stop stop-color="#05F2F2"/>
<stop offset="1" stop-color="#00FF8C"/>
</linearGradient>
</defs>
</svg>
