<svg width="1138" height="283" viewBox="0 0 1138 283" fill="none" xmlns="http://www.w3.org/2000/svg">
<path opacity="0.2" d="M103.5 196.5C51.9 222.5 11 264.667 -3 282.5V0H1138C1112.33 23.3334 1039.2 70.0001 952 70.0001C843 70.0001 755.5 -13.4999 677.5 13.5001C599.5 40.5001 575.5 134.5 493.5 171C411.5 207.5 365.5 163 274 154.5C182.5 146 168 164 103.5 196.5Z" fill="url(#paint0_linear_1_33)"/>
<path opacity="0.1" d="M137 148C80.2 157.6 17.3333 213 -7 239.5V0H1055.5C1009.83 19.3334 897 56.1002 811 48.5002C703.5 39.0002 703 33.5002 648 48.5002C593 63.5002 544.5 148 515 185.5C485.5 223 425 218 376.5 185.5C328 153 208 136 137 148Z" fill="url(#paint1_linear_1_33)"/>
<defs>
<linearGradient id="paint0_linear_1_33" x1="759.423" y1="-10.3644" x2="414.066" y2="374.275" gradientUnits="userSpaceOnUse">
<stop stop-color="#1EF895"/>
<stop offset="1" stop-color="#25B674"/>
</linearGradient>
<linearGradient id="paint1_linear_1_33" x1="156.863" y1="63.7486" x2="750.948" y2="465.007" gradientUnits="userSpaceOnUse">
<stop stop-color="#05F2F2"/>
<stop offset="1" stop-color="#00FF8C"/>
</linearGradient>
</defs>
</svg>
